<?xml version="1.0" standalone="no"?>
<!DOCTYPE svg PUBLIC "-//W3C//DTD SVG 1.1//EN" "http://www.w3.org/Graphics/SVG/1.1/DTD/svg11.dtd" >
<svg xmlns="http://www.w3.org/2000/svg">
<metadata>Generated by IcoMoon</metadata>
<defs>
<font id="icomoon" horiz-adv-x="1024">
<font-face units-per-em="1024" ascent="960" descent="-64" />
<missing-glyph horiz-adv-x="1024" />
<glyph unicode="&#x20;" horiz-adv-x="512" d="" />
<glyph unicode="&#x31;" glyph-name="vdo" d="M512 960c-282.752 0-512-229.248-512-512s229.248-512 512-512 512 229.248 512 512-229.248 512-512 512zM512 0c-247.424 0-448 200.576-448 448s200.576 448 448 448 448-200.576 448-448-200.576-448-448-448zM384 704l384-256-384-256z" />
<glyph unicode="&#x32;" glyph-name="share" horiz-adv-x="1103" d="M905.826 329.863c-64.565 0-121.262-31.4-157.185-79.346l-284.918 134.021c5.662 20.259 8.861 41.475 8.861 63.536s-3.199 43.276-8.861 63.536l284.918 134.021c35.959-47.909 92.656-79.383 157.185-79.383 108.761 0 196.858 88.171 196.858 196.968 0 108.724-88.097 196.895-196.858 196.895s-196.895-88.171-196.895-196.895c0-16.068 2.463-31.4 5.993-46.328l-284.661-133.947c-42.688 61.293-113.541 101.518-193.953 101.518-130.528 0-236.274-105.746-236.274-236.311 0-130.528 105.746-236.274 236.274-236.274 80.412 0 151.265 40.188 193.953 101.481l284.661-133.984c-3.53-14.965-5.993-30.26-5.993-46.255 0-108.798 88.134-196.968 196.895-196.968s196.858 88.171 196.858 196.968c0 108.577-88.097 196.748-196.858 196.748zM905.826 881.242c65.154 0 118.174-53.020 118.174-118.137 0-65.19-52.983-118.174-118.174-118.174-65.117 0-118.137 52.983-118.137 118.174 0 65.117 52.983 118.137 118.137 118.137zM236.274 290.484c-86.81 0-157.516 70.742-157.516 157.553 0 86.847 70.706 157.553 157.516 157.553 86.884 0 157.553-70.669 157.553-157.553 0-86.847-70.669-157.553-157.553-157.553zM905.826 14.758c-65.117 0-118.137 52.983-118.137 118.247 0 65.080 52.983 118.137 118.137 118.137s118.174-53.057 118.174-118.137c0-65.227-53.020-118.247-118.174-118.247z" />
<glyph unicode="&#x33;" glyph-name="down" d="M682.665 391.11v568.89h-341.329v-568.89h-341.335l511.997-455.104 511.997 455.11h-341.329z" />
<glyph unicode="&#x34;" glyph-name="cmt" horiz-adv-x="1094" d="M273.512 605.333c-37.763 0-68.383-31.754-68.383-70.938s30.619-70.932 68.383-70.932c37.769 0 68.389 31.754 68.389 70.932s-30.619 70.938-68.389 70.938zM547.042 605.333c-37.763 0-68.383-31.754-68.383-70.938s30.619-70.932 68.383-70.932c37.769 0 68.389 31.754 68.389 70.932s-30.632 70.938-68.389 70.938zM820.573 605.333c-37.776 0-68.395-31.754-68.395-70.938s30.619-70.932 68.395-70.932c37.769 0 68.383 31.754 68.383 70.932s-30.626 70.938-68.383 70.938zM957.332 960h-820.579c-75.526 0-136.759-63.527-136.759-141.871v-532.001c0-78.338 62.604-150.56 139.87-150.56h208.42c36.329-38.704 186.684-194.37 186.684-194.37 6.676-6.938 17.498-6.938 24.168 0 0 0 110.085 124.803 181.809 194.37h213.295c77.272 0 139.87 72.223 139.87 150.56v532.001c-0.012 78.338-61.251 141.871-136.778 141.871zM1025.714 286.129c0-39.159-32.857-80.27-71.487-80.27h-209.748c-25.408 0-48.248-26.119-48.248-26.119l-147.281-152.761-147.25 152.761c0 0-28.051 26.119-52.082 26.119h-209.761c-38.63 0-71.487 41.111-71.487 80.27v532.001c0 39.178 30.613 70.938 68.383 70.938h820.579c37.763 0 68.383-31.76 68.383-70.938v-532.001z" />
<glyph unicode="&#x35;" glyph-name="time" d="M736.075 383.858h-255.912c-17.692 0-31.991 14.298-31.991 31.998v319.909c0 17.692 14.298 31.991 31.991 31.991s31.991-14.298 31.991-31.991v-287.918h223.936c17.707 0 32.005-14.298 32.005-31.991-0.022-17.7-14.32-31.998-32.020-31.998zM512.146-64.204c-69.076 0-136.16 13.503-199.346 40.29-60.982 25.794-115.76 62.683-162.75 109.767-46.99 46.99-83.973 101.768-109.767 162.757-26.685 63.179-40.282 130.263-40.282 199.339 0 69.084 13.598 136.16 40.29 199.244 25.794 60.982 62.683 115.767 109.767 162.757 46.99 46.983 101.768 83.966 162.75 109.76 63.186 26.692 130.263 40.29 199.339 40.29s136.167-13.496 199.346-40.29c60.975-25.794 115.753-62.683 162.757-109.76 46.99-46.99 83.981-101.768 109.767-162.757 26.685-63.179 40.29-130.27 40.29-199.354 0-69.069-13.503-136.146-40.29-199.339-25.787-60.982-62.683-115.767-109.767-162.757s-101.768-83.973-162.757-109.767c-63.179-26.677-130.263-40.18-199.346-40.18zM512.146 895.507c-246.818 0-447.566-200.74-447.566-447.573 0-246.811 200.74-447.668 447.566-447.668 246.833 0 447.566 200.748 447.566 447.558 0 246.847-200.733 447.682-447.566 447.682z" />
<glyph unicode="&#x36;" glyph-name="clt" d="M759.671-63.625c-17.203 0-34.338 4.437-49.527 12.8l-198.144 107.657-198.246-107.759c-33.007-18.364-77.244-16.282-108.681 6.417-32.017 22.835-48.060 61.577-41.745 101.001l39.083 243.507-168.55 175.445c-26.692 27.614-35.806 67.721-23.723 104.619 12.322 37.069 43.554 63.727 81.647 69.7l228.113 35.328 99.294 214.869c16.759 36.25 53.18 59.665 92.809 59.665 39.765 0 76.22-23.484 92.843-59.802l99.362-214.767 227.977-35.328c38.093-5.939 69.359-32.597 81.647-69.564 12.151-36.796 3.106-76.937-23.62-104.789l-168.653-175.445 39.185-243.507c6.246-39.356-9.762-78.063-41.813-101.001-17.442-12.459-37.922-19.046-59.255-19.046zM512 134.485l230.946-125.44c11.844-6.554 25.873-5.632 36.181 1.843 10.752 7.714 16.316 21.333 14.199 34.782l-44.612 276.992 192.239 200.021c9.182 9.557 12.254 23.347 8.055 36.045-4.164 12.561-14.643 21.572-27.341 23.552l-264.055 40.926-114.756 248.115c-5.632 12.22-17.715 20.036-30.857 20.036-13.107 0-25.225-7.851-30.857-20.036l-114.654-248.115-264.192-40.892c-12.629-1.98-23.142-11.025-27.307-23.62-4.164-12.629-1.092-26.385 8.021-35.84l192.205-200.090-44.476-277.094c-2.185-13.619 3.243-26.931 14.165-34.714 10.65-7.714 24.883-8.26 35.942-2.116l231.151 125.645z" />
<glyph unicode="&#x37;" glyph-name="clt2" horiz-adv-x="1014" d="M507.767 411.231v0 0 0 0 0zM507.016 960c-28.37 0-54.215-16.66-66.266-42.743l-114.677-248.199-263.903-40.9c-27.107-4.233-49.606-23.488-58.38-49.913-8.706-26.459-2.117-55.58 17.036-75.416l193.37-201.325-44.86-279.096c-4.507-28.131 7.135-56.331 30.077-72.787 12.529-9.013 27.346-13.588 42.163-13.588 12.222 0 24.376 3.073 35.437 9.252l230.036 124.953 230.105-124.953c11.061-6.145 23.318-9.252 35.437-9.252 14.783 0 29.6 4.609 42.197 13.554 22.874 16.421 34.55 44.655 29.975 72.787l-44.826 279.13 193.404 201.29c19.153 19.87 25.708 48.957 17.002 75.416-8.74 26.424-31.272 45.714-58.414 49.913l-263.801 40.9-114.745 248.199c-12.051 26.117-37.93 42.778-66.368 42.778v0 0z" />
<glyph unicode="&#x38;" glyph-name="search" d="M1010.255 24.039l-0.028 0.028v-0.028h0.028c9.13-10.666 13.71-22.47 13.71-35.412 0-14.478-5.148-26.851-15.445-37.147-9.228-9.533-22.14-15.45-36.435-15.45-0.26 0-0.52 0.002-0.78 0.006-6.076 0-11.964 0.967-17.681 2.872-5.939 1.98-11.076 4.886-15.52 8.594l-5.642 4.518-282.529 284.548c-67.838-48.013-143.725-71.99-227.605-71.99-8.391 0-16.952 0.37-25.713 1.109-9.99 0.871-18.796 2.089-27.46 3.709-59.521 6.899-114.688 28.096-162.032 60.012-52.050 33.442-94.744 78.753-126.771 135.156-14.332 23.958-26.594 51.622-35.36 80.798-8.852 29.121-14.558 59.912-16.628 91.694-0.541 8.416-0.813 16.828-0.813 25.304 0 23.792 2.146 47.083 6.255 69.69 7.913 49.432 25.577 95.83 50.924 136.991 25.14 41.48 57.947 77.723 96.461 106.81 34.524 27.375 72.070 47.94 113.625 62.418 37.977 13.769 81.811 21.731 127.504 21.731 0.003 0 0.006 0 0.009 0 18.317 0 35.838-1.138 52.648-3.442 44.969-6.087 88.033-19.797 129.219-41.129 41.775-21.737 77.346-49.246 107.281-81.994 36.074-37.639 63.323-81.812 82.011-132.868s26.908-102.852 24.604-155.415c-3.043-87.634-33.165-166.48-90.365-236.564l283.638-284.548h-1.109zM758.616 546.29c0.29 5.104 0.456 11.076 0.456 17.086 0 43.26-8.569 84.518-24.103 122.17-10.061 26.666-23.559 51.565-39.926 74.257-16.126 22.653-35.752 43.786-58.222 62.474-21.053 17.664-44.922 33.115-70.583 45.427-43.010 20.335-91.069 31.695-141.781 31.695-13.63 0-27.069-0.821-40.269-2.415-2.080 0.113-5.629-0.299-9.054-1.045l-6.536-1.074c-51.395-8.166-97.195-27.299-136.569-54.96-39.645-27.201-72.873-62.963-97.062-104.625-29.017-47.996-44.462-99.82-47.164-156.962-2.674-57.143 7.794-110.105 31.458-158.857 20.63-45.361 49.841-83.527 85.847-113.892 35.722-30.741 78.026-53.965 124.522-67.263 51.141-14.28 100.32-16.954 149.869-8.563 28.45 5.11 53.782 13.034 77.629 23.683 23.87 10.613 46.236 23.798 66.824 39.225 20.515 15.422 39.27 33.075 55.895 52.597 17.557 20.683 31.864 42.585 43.298 66.193v-0.028c20.411 39.208 33.274 85.305 35.444 134.181z" />
<glyph unicode="&#x39;" glyph-name="eyes" horiz-adv-x="1567" d="M783.059-64c-442.368 0-783.059 504.049-783.059 504.049s294.912 519.951 783.059 519.951c488.147 0 783.059-519.951 783.059-519.951s-340.691-504.049-783.059-504.049zM1301.685 646.957c-157.636 148.6-330.511 238.773-523.686 238.773-193.235 0-366.11-90.172-523.746-238.773-55.959-53.067-106.797-111.375-147.456-169.743-5.12-10.662-15.3-21.263-20.36-31.864 10.18-10.601 15.24-21.203 25.419-31.804 45.779-58.368 101.677-111.435 157.636-164.503 162.696-148.54 335.571-233.472 508.506-233.472 172.875 0 345.751 90.232 508.446 233.472 61.018 53.067 111.857 111.435 157.636 164.503 10.18 10.601 20.36 21.203 25.419 31.804-5.060 10.601-15.24 21.203-20.36 31.864-45.719 58.368-91.497 116.676-147.456 169.743zM777.999 195.976c-147.516 0-269.493 122.037-269.493 281.239 0 153.841 116.917 281.178 269.493 281.178 147.456 0 269.493-127.337 269.493-281.178 0-153.901-116.977-281.239-269.493-281.239zM777.999 673.521c-106.797 0-193.235-90.232-193.235-201.608 0-111.435 86.438-201.668 193.235-201.668 106.737 0 193.175 95.533 193.175 201.668 0 111.375-86.438 201.608-193.175 201.608z" />
<glyph unicode="&#x41;" glyph-name="vs1" d="M512 960c-282.786 0-512-229.214-512-512 0-282.82 229.214-512 512-512 282.752 0 512.034 229.18 512.034 512-0.034 282.786-229.282 512-512.034 512zM397.598 262.055h-41.283l-118.407 358.814h43.542l79.417-260.638c5.991-16.568 11.262-36.148 15.849-58.502h0.822c4.176 19.17 9.448 38.579 15.849 58.502l82.737 260.638h41.078l-119.605-358.814zM751.449 286.564c-20.881-20.436-48.164-30.603-81.882-30.603-42.926 0-75.035 11.194-96.362 33.684-21.292 22.524-32.588 51.724-33.855 87.667l38.373 3.868c1.814-28.72 11.296-49.601 28.344-62.746 17.116-13.145 37.792-19.683 61.925-19.683 22.661 0 40.975 5.443 54.907 16.397 13.932 10.886 20.95 25.776 20.95 44.535 0 19.58-7.36 33.855-21.977 42.824-14.583 9.071-39.127 17.835-73.461 26.564-34.437 8.729-59.186 20.984-74.351 36.833-15.062 15.815-22.73 36.388-22.73 61.685 0 28.72 9.551 52.443 28.823 71.236 19.17 18.759 45.254 28.138 78.356 28.138 33.889 0 61.172-9.345 81.882-28.036 20.642-18.656 31.596-45.22 32.828-79.657l-38.716-3.629c-1.712 22.832-8.729 40.017-21.052 51.518-12.358 11.502-30.089 17.253-53.161 17.253-20.847 0-37.792-4.553-50.868-13.693-13.042-9.14-19.58-22.422-19.58-39.88 0-15.507 4.998-27.043 15.096-34.642s29.268-15.13 57.817-22.661c25.263-6.504 45.939-13.213 61.925-20.060s29.644-17.492 41.078-31.972c11.365-14.446 17.082-33.821 17.082-58.091 0-30.843-10.441-56.482-31.39-76.85z" />
<glyph unicode="&#x42;" glyph-name="vs2" d="M512.017-64c-282.337 0-512.017 229.645-512.017 511.983s229.714 512.017 512.017 512.017 512.051-229.714 512.051-512.017c0-282.337-229.714-511.983-512.051-511.983zM512.017 891.514c-244.549 0-443.497-198.948-443.497-443.497 0-244.583 198.948-443.497 443.497-443.497s443.565 199.017 443.565 443.497c-0.034 244.549-198.983 443.497-443.565 443.497zM531.854 637.51l-130.257-378.951h-54.474l-130.257 378.951h53.96l104.836-314.542 104.87 314.542h51.322zM673.896 251.707c-27.545 0-50.808 2.809-70.13 8.497-19.254 5.687-37.378 12.608-54.337 20.899v63.21h3.563c16.582-15.588 35.425-27.819 56.495-36.316 20.967-8.565 41.283-12.848 60.709-12.848 27.853 0 48.923 5.824 63.176 17.404 14.252 11.648 21.344 26.963 21.344 46.011 0 15.006-3.666 27.442-11.135 36.83-7.469 9.49-19.288 16.479-35.63 21.138-11.785 3.46-22.406 6.167-32.136 8.428-9.627 2.158-21.824 5.105-36.418 8.873-13.019 3.392-24.77 7.743-35.048 12.985-10.415 5.242-19.528 12.128-27.545 20.625-7.811 8.325-13.807 18.089-18.158 29.395-4.351 11.272-6.475 24.325-6.475 39.091 0 30.731 11.957 56.461 35.905 77.222 23.845 20.796 54.439 31.211 91.611 31.211 21.207 0 41.249-2.124 60.195-6.372s36.453-10.278 52.555-18.055v-60.332h-3.769c-12.094 11.032-27.579 20.659-46.388 28.881-18.877 8.222-38.577 12.334-59.27 12.334-23.434 0-42.277-5.482-56.735-16.411-14.389-10.963-21.618-25.318-21.618-43.099 0-16.137 4.214-28.95 12.71-38.44s20.762-16.445 36.898-20.864c10.723-2.878 23.742-6.133 39.262-9.798 15.383-3.632 28.23-6.989 38.337-10.038 26.209-7.983 45.292-20.042 57.317-36.179 12.060-16.068 18.089-35.939 18.089-59.476 0-14.8-3.083-29.361-9.113-43.75-5.996-14.458-14.458-26.689-25.284-36.727-12.197-10.929-26.003-19.425-41.352-25.421-15.314-5.996-34.568-8.908-57.625-8.908z" />
<glyph unicode="&#x43;" glyph-name="up" horiz-adv-x="1486" d="M611.428 820.677l136.649 136.748 737.577-737.627v-273.744zM0.050 213.31l745.502 746.69 136.748-136.698-882.25-887.302z" />
<glyph unicode="&#x44;" glyph-name="suc" horiz-adv-x="1373" d="M568.597-55.885c-21.422-12.531-49.407-10.741-69.217 6.504l-478.853 417.811c-24.882 21.72-27.389 59.491-5.728 84.314s59.312 27.389 84.135 5.728l434.101-378.786 735.316 859.37c21.422 25.061 59.073 27.985 84.135 6.564s27.985-59.073 6.444-84.135l-772.789-903.407c-5.072-5.967-11.099-10.621-17.543-13.963z" />
<glyph unicode="&#x45;" glyph-name="tag1" horiz-adv-x="570" d="M570.276 42.798l-0.035 577.792c0 52.892-29.295 123.683-66.631 161.123l-142.945 143.119c0 0-0.035 0-0.035 0.035-22.408 22.303-51.703 35.063-80.334 35.063-23.003 0-44.048-8.32-59.010-23.422l-48.732-48.767 30.134-30.204 48.802 48.802c8.949 8.984 20.59 10.872 28.771 10.872 17.13 0 35.867-8.425 50.095-22.548 0 0 0-0.035 0-0.035l142.945-143.154c29.33-29.365 54.15-89.354 54.15-130.919v-577.827c0-35.413-28.631-64.184-64.114-64.184h-356.47c-35.483 0-64.114 28.771-64.253 64.114l0.14 577.966c0 45.166 17.165 93.968 32.791 109.42l38.979 39.048-30.274 30.344-38.979-39.048c-25.38-25.38-45.271-86.697-45.271-139.624v-577.931c0-29.575 11.991-56.108 31.323-75.51s45.935-31.323 75.51-31.323h356.47c59.010-0.070 106.973 47.928 106.973 106.798v0zM217.546 605.103c-17.234 17.269-26.883 40.202-26.883 64.673 0 50.34 40.971 91.346 91.381 91.346 24.401 0 47.334-9.509 64.638-26.778 17.234-17.269 26.848-40.167 26.883-64.603-0.035-50.375-41.146-91.381-91.381-91.381-24.436 0.035-47.438 9.509-64.638 26.743v0zM322.875 710.432c-10.977 10.872-25.45 16.885-40.692 16.885-31.707 0-57.541-25.799-57.541-57.541 0-30.728 26.918-57.541 57.541-57.541 31.707 0 57.541 25.834 57.541 57.541-0.070 15.347-6.048 29.819-16.85 40.657v0z" />
<glyph unicode="&#x46;" glyph-name="tag2" horiz-adv-x="700" d="M0 960h700.015v-1024l-349.976 162.805-350.039-162.805v1024z" />
<glyph unicode="&#x47;" glyph-name="yzm" d="M68.32 863.072v-192h71.68v120.416h742.496v-120.448h71.488v192h-885.664zM882.496 104h-742.496v120.64h-71.68v-192h885.664v192h-71.488v-120.64zM306.944 288.64v319.232h-49.568c-6.944-19.36-19.808-36.288-38.496-50.848-18.656-14.528-36-24.384-51.936-29.6v-55.296c30.272 9.984 56.576 25.344 78.912 46.208v-229.664h61.088zM479.968 425.696c-34.176-31.648-57.12-57.088-68.672-76.256-11.584-19.136-18.56-39.424-20.864-60.8h214.080v56.64h-121.28c3.168 5.472 7.36 11.104 12.512 16.896s17.344 17.472 36.608 35.136c19.264 17.632 32.608 31.168 40.032 40.576 11.136 14.144 19.328 27.712 24.448 40.672 5.12 12.928 7.68 26.56 7.68 40.864 0 25.152-8.992 46.176-26.944 63.104-17.984 16.896-42.688 25.344-74.112 25.344-28.672 0-52.608-7.296-71.712-21.888-19.168-14.624-30.496-38.688-34.112-72.224l60.832-6.080c1.184 17.792 5.504 30.528 13.056 38.176s17.664 11.488 30.432 11.488c12.928 0 23.008-3.648 30.336-10.944s10.976-17.728 10.976-31.328c0-12.288-4.224-24.704-12.608-37.28-6.272-9.152-23.2-26.496-50.688-52.096zM748 333.76c-11.744 0-21.76 3.968-30.016 11.904-8.288 7.968-13.376 19.456-15.264 34.464l-59.136-7.136c3.072-26.752 14.048-48.448 33.056-64.96 18.976-16.544 42.88-24.832 71.712-24.832 30.464 0 55.904 9.824 76.288 29.504 20.48 19.68 30.688 43.424 30.688 71.36 0 19.232-5.504 35.616-16.448 49.216s-25.536 22.368-43.776 26.24c30.528 16.64 45.856 38.88 45.856 66.784 0 19.648-7.424 37.312-22.368 52.896-18.112 19.104-42.176 28.64-72.16 28.64-17.568 0-33.376-3.296-47.52-9.856-14.080-6.592-25.12-15.616-32.992-27.104-7.936-11.52-13.824-26.88-17.76-46.080l56.352-9.536c1.568 13.888 6.016 24.448 13.472 31.648 7.36 7.232 16.256 10.848 26.688 10.848 10.624 0 19.072-3.168 25.504-9.504 6.336-6.4 9.536-14.912 9.536-25.6 0-12.576-4.352-22.656-13.056-30.24-8.672-7.584-21.28-11.168-37.792-10.72l-6.784-49.664c10.88 3.040 20.224 4.576 28.096 4.576 11.84 0 21.952-4.48 30.176-13.472s12.416-21.12 12.416-36.416c0-16.224-4.352-29.056-12.96-38.592-8.608-9.632-19.2-14.368-31.808-14.368z" />
<glyph unicode="&#x48;" glyph-name="user2" d="M512 495.936c-117.056 0-212.256 98.656-212.256 219.904 0 58.688 22.016 113.888 62.016 155.392 40.128 41.664 93.472 64.512 150.24 64.512 117.056 0 212.32-98.656 212.32-219.904s-95.232-219.904-212.32-219.904zM512 878.432c-41.696 0-80.896-16.864-110.4-47.488-29.6-30.72-45.888-71.584-45.888-115.104 0-89.632 70.080-162.56 156.256-162.56s156.32 72.928 156.32 162.56-70.112 162.56-156.32 162.56zM512 488.128c-121.344 0-220.064 102.144-220.064 227.712 0 60.736 22.816 117.824 64.224 160.8 41.568 43.136 96.928 66.912 155.84 66.912 121.376 0 220.128-102.144 220.128-227.712s-98.752-227.712-220.128-227.712zM512 927.968c-54.656 0-106.016-22.080-144.608-62.144s-59.84-93.312-59.84-149.984c0-116.96 91.712-212.096 204.448-212.096s204.512 95.136 204.512 212.096-91.744 212.096-204.512 212.096zM512 545.472c-90.464 0-164.064 76.416-164.064 170.368-0.032 45.504 17.056 88.288 48.064 120.512 30.976 32.16 72.16 49.888 116 49.888 90.496 0 164.128-76.416 164.128-170.368s-73.632-170.368-164.128-170.368zM512 870.624c-39.552 0-76.768-16-104.768-45.088-28.192-29.28-43.712-68.224-43.712-109.664 0-85.344 66.592-154.784 148.48-154.784s148.512 69.44 148.512 154.784-66.624 154.784-148.512 154.784zM592.96 113.472h-161.888c-155.776 0-278.816 0-278.816 87.264v16.704c0 158.56 133.664 297.6 286.048 297.6h147.424c152.384 0 286.048-139.040 286.048-297.6v-16.704c0-87.264-129.216-87.264-278.816-87.264zM438.304 457.696c-122.56 0-230.048-112.288-230.048-240.256v-16.704c0-29.92 134.112-29.92 222.848-29.92h161.888c66.688 0 222.816 0 222.816 29.92v16.704c0 127.968-107.488 240.256-230.048 240.256h-147.424zM592.96 105.664h-161.888c-79.648 0-148.416 0-199.488 11.072-28 6.080-48.576 15.136-62.816 27.68-16.128 14.176-24.32 33.12-24.32 56.32v16.704c0 162.688 137.312 305.408 293.856 305.408h147.424c156.544 0 293.856-142.72 293.856-305.408v-16.704c0-43.648-29.28-71.104-89.472-84-51.808-11.072-122.4-11.072-197.12-11.072zM438.304 507.232c-148.224 0-278.24-135.424-278.24-289.792v-16.704c0-36.288 23.072-57.504 74.848-68.736 49.408-10.72 117.44-10.72 196.16-10.72h161.888c73.888 0 143.68 0 193.888 10.72 25.92 5.536 44.704 13.472 57.344 24.224 13.312 11.296 19.776 25.856 19.776 44.512v16.704c0 154.368-130.016 289.792-278.24 289.792h-147.424zM592.96 163.008h-161.888c-44.736 0-100.384 0-145.344 3.776-25.088 2.112-43.872 5.12-57.408 9.184-6.912 2.080-27.904 8.416-27.904 24.768v16.704c0 132.16 111.136 248.064 237.856 248.064h147.424c126.72 0 237.856-115.904 237.856-248.064v-16.704c0-18.624-28-28.768-93.6-33.952-47.68-3.776-103.616-3.776-137.024-3.776zM438.304 449.888c-118.4 0-222.272-108.64-222.272-232.448v-16.704c0-0.512 0.8-12.544 71.008-18.4 44.288-3.712 99.616-3.712 144.032-3.712h161.888c33.184 0 88.736 0 135.808 3.712 77.056 6.080 79.2 18.304 79.2 18.4v16.704c0 123.84-103.872 232.448-222.24 232.448h-147.424z" />
<glyph unicode="&#x49;" glyph-name="psw" d="M791.36 500.928l-459.168 0.8c-0.192 61.92-16.832 157.92 36.032 216.192 32.128 35.52 86.336 72.064 144.128 72.064 85.408 0 149.248-64.416 180.16-144.128 9.024-23.008 16.928-35.392 36.032-36.032 47.904-1.44 44.992 49.088 36.032 72.064-44.672 115.072-128.448 180.16-252.224 180.16-84.128 0-130.464-17.28-180.16-72.064-76-83.744-72.256-219.136-72.064-288.256l-26.784-0.8c-25.056 0-45.28-20.032-45.28-44.672v-378.24c0-24.768 20.256-44.768 45.28-44.768h557.984c25.024 0 45.28 20 45.28 44.768v378.24c0.032 24.672-20.224 44.672-45.216 44.672v0zM765.664 141.664c0-9.952-3.488-18.528-10.592-25.504-7.040-7.040-15.552-10.592-25.504-10.592h-433.216c-9.952 0-18.464 3.488-25.472 10.592-7.040 7.040-10.624 15.552-10.624 25.504v252.704c0 19.872 16.16 36.064 36.096 36.064h433.216c19.936 0 36.096-16.192 36.096-36.064v-252.704z" />
<glyph unicode="&#x4d;" glyph-name="phone2" d="M718.24 892.672h-463.776c-41.632 0-75.264-31.936-75.264-71.168v-814.24c0-39.136 33.632-71.264 75.264-71.264h463.808c41.824 0 75.328 32.128 75.328 71.264v814.24c-0.096 39.232-33.6 71.168-75.36 71.168v0zM475.072-28.512c-20.8 0-37.6 15.936-37.6 35.68 0 19.52 16.768 35.584 37.6 35.584 20.704 0 37.536-16.064 37.536-35.584 0-19.808-16.864-35.68-37.536-35.68v0zM757.44 80.992h-518.432v732.992h506.016v-732.992h12.416z" />
<glyph unicode="&#x61;" glyph-name="ads" d="M560.094-25.259c2.15 2.662 6.793 8.567 13.244 16.862 10.684 13.79 22.528 29.457 35.328 46.66 36.454 49.254 73.011 101.376 107.145 154.112 26.010 40.243 49.63 79.292 70.315 116.634 57.105 103.322 89.19 188.757 89.19 253.577 0 200.636-162.645 363.281-363.315 363.281-200.636 0-363.315-162.645-363.315-363.315 0-64.819 32.119-150.289 89.361-253.781 20.651-37.376 44.271-76.39 70.315-116.599 34.133-52.77 70.69-104.926 107.213-154.214 12.8-17.237 24.678-32.905 35.362-46.694 6.417-8.294 11.059-14.199 13.585-17.374 24.986-32.017 70.417-31.71 95.573 0.853zM504.9 33.075c-10.411 13.483-22.016 28.74-34.509 45.602-35.738 48.196-71.441 99.191-104.755 150.63-25.19 38.98-48.026 76.629-67.857 112.538-51.951 93.969-80.828 170.701-80.828 220.74 0 162.918 132.13 295.014 295.049 295.014s295.049-132.096 295.049-295.049c0-49.971-28.809-126.635-80.691-220.535-19.797-35.908-42.667-73.591-67.857-112.572-33.28-51.405-68.983-102.366-104.653-150.528-12.459-16.828-24.064-32.119-34.475-45.534-6.212-8.021-10.615-13.585-12.902-16.452 1.638 2.15 9.421 2.15 11.639-0.717-2.594 3.243-6.997 8.841-13.21 16.862zM716.8 550.4c0 113.084-91.716 204.8-204.8 204.8s-204.8-91.716-204.8-204.8 91.716-204.8 204.8-204.8 204.8 91.716 204.8 204.8zM375.467 550.4c0 75.401 61.133 136.533 136.533 136.533s136.533-61.133 136.533-136.533-61.133-136.533-136.533-136.533-136.533 61.133-136.533 136.533z" />
<glyph unicode="&#x62;" glyph-name="cry" d="M511.737-23.72c260.233 0 471.962 211.728 471.962 471.962s-211.728 471.962-471.962 471.962c-260.234 0-471.962-211.728-471.962-471.962s211.729-471.962 471.962-471.962v0zM511.737-63.053c-282.379 0-511.295 228.916-511.295 511.295s228.916 511.295 511.295 511.295c282.379 0 511.295-228.916 511.295-511.295s-228.915-511.295-511.295-511.295v0 0 0zM334.742 487.579c-32.567 0-58.986 26.417-58.986 58.986 0 32.588 26.417 59.006 58.986 59.006 32.588 0 59.006-26.417 59.006-59.006 0.001-32.568-26.417-58.986-59.006-58.986v0 0zM688.734 487.579c-32.588 0-59.006 26.417-59.006 58.986 0 32.588 26.417 59.006 59.006 59.006 32.568 0 58.986-26.417 58.986-59.006 0-32.568-26.417-58.986-58.986-58.986v0 0zM314.827 235.149c-8.132-7.183-20.556-6.44-27.758 1.713-7.202 8.132-6.44 20.556 1.692 27.758 4.954 4.335 233.133 202.135 445.854 0.083 7.863-7.491 8.194-19.936 0.702-27.801-7.471-7.884-19.916-8.194-27.8-0.722-185.685 176.377-384.29 6.315-392.586-0.928l-0.104-0.104z" />
<glyph unicode="&#x63;" glyph-name="lt" horiz-adv-x="706" d="M96.002 357.187l-94.227 94.227 508.415 508.381h188.727zM514.663-64.205l-514.663 513.878 94.227 94.261 611.621-608.139z" />
<glyph unicode="&#x64;" glyph-name="dn" horiz-adv-x="1486" d="M874.276 75.274l-136.748-136.797-737.528 737.676v273.744zM1485.654 682.591l-745.551-746.591-136.797 136.649 882.349 887.351z" />
<glyph unicode="&#x65;" glyph-name="rt" horiz-adv-x="706" d="M609.846 538.608l94.227-94.227-508.449-508.381h-188.693zM191.185 960l514.663-513.878-94.227-94.261-611.621 608.139z" />
<glyph unicode="&#x66;" glyph-name="logo" horiz-adv-x="2560" d="M1343.418 908.328h137.394v-163.424h-137.394zM1343.418 696.37h137.394v-420.608h-137.394zM644.324 677.486v-81.748h145.28c0 0 17.002 0.488 29.564-9.74 11.886-9.66 10.328-38.256 10.328-38.256v-271.98h151.678l0.002 319.976h337.278v81.748h-337.278v230.842h-151.678v-230.842h-185.174zM1129.418 338.704h145.514l-75.72 207.902h-145.538zM1257.652 846.46h-224.46v-94.868l224.46-0.7zM2147.28 750.892h409.722v95.83h-409.722v61.606h-150.392v-61.606h-82.58v-95.83h82.58v-159.314c0 0-5.318-109.54 96.176-109.54 32.846 0 81.666 0 146.284 0v-75.852l-355.686-0.214v94.786c0 0-9.498 68.424-73.476 68.992-57.932 0.508-285.374 0-285.374 0v-85.39h215.166v-168.304h499.372v-39.492h158.806v39.492h158.848l-0.002 90.13h-158.848v75.852c108.436 0 158.848 0 158.848 0v87.714h-158.848v126.618h-158.806v-126.618h-92.068v181.14zM1524.812 702.356h358.81v-80.61h-358.81zM1884.232 846.46h-214.030v61.868h-145.39v-157.436h359.42zM149.916 275.112l60.814 205.95h233.060l-65.616-46.384-50.908 32.056h-120.936l-9.062-31.212 94.644-61.84-139.972-98.57h170.928l57.43 40.68 62.354-40.812 183.992 0.132-160.076 101.688 95.948 65.854c0 0 42.68 40.256 28.038 80.966-10.224 28.484-26.23 32.126-26.23 32.126h-325.046l10.030 26.922h371.384v72.93h-343.158l10.36 27.946h-146.052l-10.69-27.946h-128.232v-72.93h100.358l-99.414-307.556h146.052zM160.804 705.97h336.252v-22.426h123.636v79.332h-617.772v-72.94h157.884zM58.928 775.692h132.19l-22.786 64.13h58.906l24.5-64.13h127.062l-23.542 64.13h101.55l-9.914-64.13h124.572l15.268 64.13h33.958v68.506h-617.772v-68.506h37.404zM240.688 199.21h-64.496l-54.42-66.466-54.772 66.466h-64.536l87.18-105.33-89.042-108.232h64.518l56.88 68.538 57.276-68.538h64.498l-89.622 108.232zM307.276 53.322l-0.208 78.216c-0.046 11.904 6.566 17.808 19.798 17.808h164.59l-0.132 49.864h-164.592c-19.314 0-35.728-6.402-49.168-19.28-13.492-12.886-20.198-28.98-20.152-48.3l0.238-78.398c0.066-19.342 6.85-35.444 20.396-48.292 13.546-12.856 29.986-19.29 49.312-19.29h164.6l-0.152 49.864-164.616-0.002c-13.226 0-19.838 5.918-19.914 17.81zM756.27 179.706c-11.182 12.978-25.76 19.502-43.674 19.502l-140.636 0.002c-17.626 0-32.006-6.524-43.156-19.502-11.128-12.968-16.646-28.484-16.602-46.426v-147.632h50.062l-0.426 147.53c-0.040 10.778 3.374 16.166 10.29 16.166h140.612c7.154 0 10.772-5.388 10.792-16.216l0.112-29.912h-130.706l0.102-49.856h130.728l0.198-67.714h49.616l-0.416 147.632c-0.056 17.944-5.688 33.458-16.896 46.426zM1211.406 53.322l-0.24 78.216c-0.024 11.904 6.566 17.808 19.792 17.808h164.616l-0.142 49.864h-164.606c-19.336 0-35.702-6.402-49.164-19.28-13.48-12.886-20.188-28.98-20.122-48.3l0.208-78.398c0.066-19.342 6.86-35.444 20.426-48.292 13.538-12.856 29.954-19.29 49.234-19.29h164.652l-0.142 49.864h-164.62c-13.242-0.002-19.872 5.916-19.892 17.808zM1659.75 179.928c-13.536 12.878-29.954 19.28-49.274 19.28h-124.884c-19.292 0-35.7-6.402-49.166-19.28-13.456-12.886-20.192-28.98-20.11-48.3l0.182-78.398c0.082-19.342 6.9-35.444 20.436-48.292 13.576-12.856 29.964-19.29 49.286-19.29h124.904c19.3 0 35.658 6.434 49.174 19.29 13.434 12.848 20.174 28.95 20.112 48.292l-0.234 78.398c-0.050 19.322-6.848 35.414-20.426 48.3zM1630.516 131.536l0.264-78.216c0.020-11.892-6.546-17.81-19.788-17.81h-124.902c-13.274 0-19.87 5.918-19.932 17.81l-0.214 78.216c-0.050 11.904 6.556 17.808 19.778 17.808h124.912c13.236 0 19.882-5.902 19.882-17.808zM1925.206 199.21l-86.050-123.422-86.384 123.422h-52.148l0.65-213.562h49.64v130.038l88.506-126.708 88.13 126.708 0.354-130.038h49.652v213.562zM2127.91 53.322l-0.244 78.216c0 11.904 6.556 17.808 19.808 17.808h164.59l-0.142 49.864h-164.592c-19.288 0-35.718-6.402-49.174-19.28-13.456-12.886-20.192-28.98-20.142-48.3l0.254-78.398c0.030-19.342 6.818-35.444 20.406-48.292 13.528-12.856 29.946-19.29 49.286-19.29h164.6l-0.152 49.864h-164.63c-13.212-0.002-19.83 5.916-19.868 17.808zM2510.454 56.274l-128.21 142.936h-49.642v-213.562h50.278l-0.446 143.748 128.232-143.748h49.654v213.562h-49.866zM1045.444 77.908c10.178 13.526 15.258 30.056 15.186 49.386-0.060 19.414-5.216 35.912-15.444 49.468-11.076 14.976-26.128 22.446-45.15 22.446h-206.372v-213.562h50.24v163.696h153.372c9.106 0 13.698-7.356 13.724-22.050 0.040-14.642-4.496-21.966-13.588-21.966h-99.784v-31.448l78.656-88.232h67.806l-62.66 69.814h19.016c19.066 0.002 34.056 7.472 44.998 22.448zM1140.912-9.176c0-2.72-2.212-4.93-4.948-4.93h-47.97c-2.736 0-4.948 2.212-4.948 4.93v48.010c0 2.706 2.212 4.94 4.948 4.94h47.97c2.736 0 4.948-2.232 4.948-4.94v-48.010zM2062.256-9.176c0-2.72-2.202-4.93-4.932-4.93h-47.986c-2.74 0-4.942 2.212-4.942 4.93v48.010c0 2.706 2.202 4.94 4.942 4.94h47.986c2.73 0 4.932-2.232 4.932-4.94v-48.010z" />
<glyph unicode="&#x67;" glyph-name="yr" horiz-adv-x="2496" d="M320.002 960v-345.085l-320.002-192.006 320.002-191.998v-294.911h2176.004v1024h-2176.004zM1024.008 128.006h-44.998l-275.004 452.605v-452.605h-64.002v575.994h68.609l251.393-438.663v438.663h64.002v-575.994zM1536 640.006h-320.002v-191.998h320.002v-64.002h-320.002v-192.006h320.002v-64.002h-384.004v576.002h384.004v-63.994zM2138.178 128.006h-66.567l-110.586 428.857-16.575 69.504c-4.926-23.998-9.988-52.99-15.247-72.001l-110.973-426.361h-70.066l-139.396 576.002h70.787l79.811-363.467c8.379-36.983 15.809-76.039 22.214-114.039l23.482 103.93 99.657 373.576h84.030l74.688-281.341c18.177-67.781 31.8-134.212 40.831-196.165 6.656 35.777 15.232 77.951 25.668 121.985l82.368 355.581h69.709l-143.835-576.063z" />
<glyph unicode="&#x68;" glyph-name="like2" horiz-adv-x="989" d="M854.918 607.008c-29.862 1.922-128.854-15.343-180.958-19.977 3.982 29.244 13.798 56.635 27.597 106.783 14.931 54.198 38.752 107.47 30.755 170.455-13.592 106.955-136.337 134.002-173.201 30.926-2.643-7.38-52.242-126.829-52.242-126.829-40.297-65.628-41.292-78.809-139.082-148.762-84.232-60.239-101.978-76.543-117.355-89.346-10.572-8.753-21.933-25.709-21.933-39.37v-434.066c0-14.554 6.934-28.112 18.741-36.555 64.496-46.51 292.032-84.232 406.332-84.232 59.45 0 92.95-1.579 139.803 24.542 25.057 13.936 28.215 35.388 40.468 46.75 57.322 53.374 40.743 125.215 54.713 139.391 65.045 65.834 51.624 145.467 60.72 166.885 25.881 61.303 16.064 59.519 27.631 101.909 39.233 142.79-20.938 184.94-121.989 191.496zM73.248 569.354c-40.434 0-73.248-32.78-73.248-73.248v-443.094c0-40.468 32.814-73.283 73.248-73.283s73.214 32.814 73.214 73.283v443.094c0 40.468-32.78 73.248-73.214 73.248v0 0z" />
<glyph unicode="&#x69;" glyph-name="like" horiz-adv-x="991" d="M660.968-64h-16.839c-99.118 0-326 32.275-399.243 85.017-19.885 14.409-31.693 37.511-31.693 61.846v405.096c0 24.745 16.463 49.525 32.788 63.112l4.792 4.004c14.238 11.979 35.732 30.084 106.716 80.875 75.331 53.906 83.134 66.877 109.009 109.865l10.062 16.634c17.387 41.858 44.733 107.948 47.095 114.382 18.413 51.339 59.45 83.169 107.127 83.169 52.468 0 110.823-40.968 120.783-119.242 6.845-53.837-7.667-100.521-20.467-141.729-3.183-10.268-6.366-20.467-9.207-30.735-3.731-13.588-7.187-25.396-10.268-36.005-1.54-5.305-2.978-10.268-4.312-14.922 6.879 0.924 13.896 1.882 20.946 2.841 44.528 6.058 86.112 11.603 105.997 10.302 64.824-4.244 108.53-23.41 133.652-58.663 27.107-37.991 30.666-91.417 11.021-163.291-3.525-12.561-4.655-20.33-5.716-27.552-2.807-18.961-5.887-34.226-21.802-71.908-0.548-2.498-0.753-8.043-1.369-14.82-2.943-33.096-8.317-93.95-58.218-147.342-0.65-3.354-0.958-7.461-1.506-12.116-3.559-30.392-9.481-81.218-54.693-123.247-1.54-1.746-2.772-4.278-4.312-6.845-6.811-11.5-17.181-28.887-40.284-41.653-45.281-25.224-80.91-27.073-130.058-27.073zM630.78 891.549c-18.756 0-33.883-13.416-42.611-37.751-2.362-6.811-35.287-86.18-49.354-119.995l-2.43-4.792-11.192-18.482c-31.111-51.715-44.904-70.916-127.799-130.229-68.828-49.217-89.124-66.261-102.506-77.556l-5.1-4.278c-3.902-3.251-7.701-9.412-8.214-11.842l0.103-403.761c0-2.464 1.232-4.86 3.32-6.366 49.593-35.732 250.806-72.045 359.165-72.045h16.805c41.824 0 65.097 0.787 96.927 18.55 6.674 3.696 9.481 8.043 14.683 16.805 3.936 6.571 8.83 14.82 16.497 21.973 26.73 24.916 30.392 56.062 33.336 81.081 2.122 18.105 4.107 35.253 16.599 47.95 36.45 36.861 40.215 78.925 42.919 109.591 1.266 14.101 2.225 25.259 6.469 35.355 13.759 32.514 15.265 42.577 17.181 55.343 1.369 9.344 2.909 19.44 7.393 35.663 13.656 49.97 13.451 85.462-0.719 105.347-12.458 17.455-39.36 27.312-82.313 30.084-0.137 0-0.274 0-0.376 0-19.782 0-58.115-5.202-91.999-9.823-26.217-3.559-52.057-7.085-71.258-8.796l-42.714-3.833 5.716 42.508c2.978 22.076 8.728 41.824 16.668 69.17 3.012 10.336 6.366 21.836 9.994 35.047 3.012 10.918 6.4 21.87 9.789 32.857 11.808 37.888 22.897 73.688 17.9 112.774-4.963 39.017-30.358 59.45-52.879 59.45zM102.575-23.237c-56.575 0-102.575 46.034-102.575 102.609v413.515c0 56.541 45.999 102.575 102.575 102.575s102.575-45.999 102.575-102.575v-413.515c-0.034-56.575-46.034-102.609-102.575-102.609zM102.575 526.976c-18.824 0-34.123-15.299-34.123-34.089v-413.515c0-18.858 15.299-34.157 34.123-34.157s34.123 15.299 34.123 34.157v413.515c-0.034 18.79-15.333 34.089-34.123 34.089z" />
<glyph unicode="&#x6a;" glyph-name="top" horiz-adv-x="768" d="M0.188 128h767.5l-383.688 383.75-383.812-383.75zM0 768v-128h768v128h-768z" />
<glyph unicode="&#x6b;" glyph-name="smlogo" horiz-adv-x="4129" d="M2167.325 960h222.141v-264.225h-222.141v264.225zM2167.325 617.305h222.141v-680.043h-222.141v680.043zM1037.027 586.774v-132.171h234.886c0 0 27.491 0.789 47.799-15.748 19.217-15.618 16.698-61.852 16.698-61.852v-439.739h245.234l0.003 517.34h545.313v132.171h-545.309v373.225h-245.234v-373.226h-299.39zM1821.329 39.029h235.268l-122.424 336.137h-235.307zM2028.658 859.972h-362.908v-153.383l362.908-1.132zM3467.013 705.457h662.44v154.938h-662.44v99.605h-243.158v-99.605h-133.514v-154.938h133.514v-257.58c0 0-8.595-177.103 155.501-177.103 53.106 0 132.038 0 236.509 0v-122.641l-575.075-0.348v153.252c0 0-15.356 110.628-118.8 111.547-93.665 0.821-461.394 0-461.394 0v-138.061h347.881v-272.116h807.387v-63.851h256.76v63.851h256.828l-0.003 145.721h-256.828v122.641c175.321 0 256.828 0 256.828 0v141.818h-256.828v204.718h-256.76v-204.718h-148.856l0.006 292.87zM2460.605 626.984h580.127v-130.331h-580.127v130.331zM3041.716 859.972h-346.045v100.028h-235.066v-254.543h581.11zM237.665-63.785l98.324 332.976h376.812l-106.088-74.992-82.308 51.83h-195.53l-14.651-50.462 153.021-99.986-226.307-159.365h276.357l92.853 65.772 100.814-65.987 297.476 0.215-258.808 164.408 155.126 106.473c0 0 69.008 65.086 45.332 130.908-16.53 46.051-42.407 51.94-42.407 51.94h-525.534l16.217 43.528h600.455v117.914h-554.819l16.75 45.183h-236.138l-17.284-45.183h-207.326v-117.915h162.259l-160.733-497.255h236.138zM255.269 632.827h543.654v-36.258h199.895v128.264h-998.817v-117.93h255.268zM90.556 745.553h213.725l-36.841 103.686h95.239l39.612-103.686h205.434l-38.063 103.686h164.187l-16.029-103.686h201.409l24.685 103.686h54.903v110.761h-998.817v-110.761h60.475z" />
<glyph unicode="&#x6c;" glyph-name="video" d="M426.109 729.879c0 108.241-87.747 195.988-195.988 195.988s-195.988-87.747-195.988-195.988c0-108.241 87.747-195.988 195.988-195.988s195.988 87.747 195.988 195.988zM102.4 729.879c0 70.538 57.183 127.721 127.721 127.721s127.721-57.183 127.721-127.721c0-70.538-57.183-127.721-127.721-127.721s-127.721 57.183-127.721 127.721zM835.709 729.879c0 108.241-87.747 195.988-195.988 195.988s-195.988-87.747-195.988-195.988c0-108.241 87.747-195.988 195.988-195.988s195.988 87.747 195.988 195.988zM512 729.879c0 70.538 57.183 127.721 127.721 127.721s127.721-57.183 127.721-127.721c0-70.538-57.183-127.721-127.721-127.721s-127.721 57.183-127.721 127.721zM723.781 448c0.241 0 0.197-385.783 0.197-385.783 0 0.144-587.248 0.006-587.248 0.006-0.241 0-0.197 385.783-0.197 385.783 0-0.144 587.248-0.006 587.248-0.006zM68.267 62.217c0-37.885 30.664-68.26 68.464-68.26h587.050c37.612 0 68.464 30.551 68.464 68.26v385.789c0 37.885-30.664 68.26-68.464 68.26h-587.050c-37.612 0-68.464-30.551-68.464-68.26v-385.789zM885.53 379.261c-5.666-2.449-16.851 5.040-16.821 11.056l-1.467-292.168c0.024 4.85 8.594 10.866 13.088 9.311l-109.137 37.754 22.974-32.258v249.249l-20.591-31.332 111.954 48.388zM725.901 384.637v-295.991l132.111-45.702c39.571-13.689 77.284 12.785 77.496 54.862l1.467 292.168c0.216 43.013-38.787 69.128-78.529 51.951l-132.545-57.288z" />
<glyph unicode="&#x6d;" glyph-name="updown" d="M376.149 71.236c0-18.842 15.292-34.099 34.167-34.099 18.842 0 34.133 15.326 34.099 34.167l-0.683 735.13c0 18.842-15.326 34.133-34.167 34.099s-34.099-15.326-34.099-34.167l0.683-735.13zM579.618 71.885c-0.034-18.842 15.223-34.167 34.099-34.167s34.133 15.258 34.167 34.099l0.649 734.549c0 18.842-15.258 34.133-34.099 34.167s-34.167-15.258-34.167-34.099l-0.649-734.549zM378.709 55.945c9.353-16.384 30.174-22.050 46.558-12.732 16.35 9.318 22.050 30.208 12.732 46.558l-135.919 238.080c-9.318 16.35-30.174 22.050-46.558 12.732s-22.084-30.208-12.732-46.592l135.919-238.046zM720.452 567.159c9.796-16.111 30.754-21.265 46.899-11.503 16.111 9.762 21.265 30.754 11.503 46.899l-134.656 222.276c-9.796 16.145-30.788 21.299-46.899 11.503-16.145-9.762-21.299-30.754-11.503-46.865l134.656-222.31z" />
<glyph unicode="&#x6e;" glyph-name="write" d="M695.561 792.799l-354.862-354.862 137.147-137.147 354.862 354.862-137.147 137.147zM747.915 845.152l69.789 69.789c14.597 14.597 38.124 14.738 52.55 0.311l84.909-84.909c14.425-14.425 14.491-37.747-0.311-52.55l-69.789-69.789-137.147 137.147zM294.99 378.94c-0.548-0.948-1.073-1.878-1.573-2.786l-121.804-221.39c-9.72-17.667-2.871-24.728 15.466-15.466l228.019 115.175c0.933 0.472 1.89 0.97 2.866 1.493l-122.974 122.974z" />
<glyph unicode="&#x6f;" glyph-name="smile" d="M989.867 448c0 263.919-213.948 477.867-477.867 477.867s-477.867-213.948-477.867-477.867c0-263.919 213.948-477.867 477.867-477.867s477.867 213.948 477.867 477.867zM102.4 448c0 226.202 183.398 409.6 409.6 409.6s409.6-183.398 409.6-409.6c0-226.202-183.398-409.6-409.6-409.6s-409.6 183.398-409.6 409.6zM375.467 584.533c0-37.703-30.564-68.267-68.267-68.267s-68.267 30.564-68.267 68.267c0 37.703 30.564 68.267 68.267 68.267s68.267-30.564 68.267-68.267zM785.067 584.533c0-37.703-30.564-68.267-68.267-68.267s-68.267 30.564-68.267 68.267c0 37.703 30.564 68.267 68.267 68.267s68.267-30.564 68.267-68.267zM311.842 214.528c55.364-48.435 122.061-78.268 199.578-79.667 79.462-1.399 147.524 29.116 203.605 80.111 32.461 29.559 54.272 59.153 65.809 79.974 9.148 16.452 3.174 37.274-13.346 46.387-16.452 9.148-37.274 3.174-46.387-13.346-1.809-3.243-5.939-9.796-12.39-18.569-10.991-14.95-24.235-29.969-39.595-43.964-44.1-40.107-96.085-63.386-156.467-62.327-59.972 1.058-111.787 24.269-155.819 62.805-16.009 13.995-29.798 29.013-41.233 43.998-6.724 8.806-11.025 15.326-12.868 18.569-9.421 16.35-30.276 21.982-46.626 12.561s-21.948-30.31-12.561-46.626c11.947-20.821 34.577-50.415 68.301-79.906z" />
<glyph unicode="&#x70;" glyph-name="img" d="M921.487 755.2c-0.043 0 0.113-614.68 0.113-614.68 0 0.279-819.087 0.28-819.087 0.28 0.043 0-0.113 614.68-0.113 614.68 0-0.279 819.087-0.28 819.087-0.28zM34.133 140.52c0-37.325 30.776-67.987 68.379-67.987h818.975c37.62 0 68.379 30.363 68.379 67.987v614.96c0 37.325-30.776 67.987-68.379 67.987h-818.975c-37.62 0-68.379-30.363-68.379-67.987v-614.96zM239.359 381.2c-0.373-0.391 147.528-153.392 147.528-153.392l26.027-26.763 271.968 316.486c-1.417-1.649-5.789-1.646-7.026-0.233l252.19-288.173 51.372 44.958-252.19 288.173c-26.015 29.727-70.352 29.756-96.123-0.233l-247.637-288.173 50.358 1.551-149.33 153.553c-26.433 27.181-70.141 26.978-96.487-0.585l-146.418-153.18 49.349-47.17 146.418 153.18z" />
<glyph unicode="&#x71;" glyph-name="cls" d="M940.134-34.133c13.107-13.517 34.714-13.858 48.265-0.751 13.517 13.107 13.858 34.714 0.717 48.265l-890.573 919.177c-13.141 13.551-34.748 13.892-48.265 0.785s-13.892-34.748-0.785-48.265l890.641-919.211zM49.493 13.38c-13.107-13.551-12.766-35.157 0.751-48.265s35.157-12.766 48.265 0.751l890.607 919.211c13.141 13.517 12.8 35.157-0.717 48.265-13.551 13.107-35.157 12.766-48.265-0.751l-890.641-919.211z" />
<glyph unicode="&#x72;" glyph-name="tag" d="M451.527 773.448l473.81-473.81c0.010-0.010-265.053-265.049-265.053-265.049 0.108 0.108-473.732 473.884-473.732 473.884-8.415 8.415-18.49 27.807-20.576 39.707l-54.937 313.424c0.843-4.808-6.972-12.562-11.818-11.697l312.587-55.775c11.708-2.089 31.393-12.359 39.719-20.685zM111.212 917.113c-41.747 7.449-74.773-25.319-67.415-67.294l54.937-313.424c4.508-25.717 21.203-57.85 39.546-76.193l473.81-473.81c26.562-26.562 69.85-26.69 96.465-0.074l265.127 265.127c26.626 26.626 26.566 69.825-0.074 96.465l-473.81 473.81c-18.201 18.201-50.551 35.077-76 39.618l-312.587 55.775zM512 567.467c0 65.98-53.487 119.467-119.467 119.467s-119.467-53.487-119.467-119.467c0-65.98 53.487-119.467 119.467-119.467s119.467 53.487 119.467 119.467zM341.333 567.467c0 28.277 22.923 51.2 51.2 51.2s51.2-22.923 51.2-51.2c0-28.277-22.923-51.2-51.2-51.2s-51.2 22.923-51.2 51.2z" />
<glyph unicode="&#x73;" glyph-name="nolike" d="M991.744 480.29c-11.537 42.155-1.741 40.38-27.477 101.376-9.079 21.265 4.267 100.454-60.416 165.922-13.926 14.097 2.594 85.538-54.409 138.615-12.186 11.332-15.326 32.666-40.277 46.524-46.592 25.941-79.94 24.405-138.991 24.405-113.664 0-339.968-37.547-404.105-83.797-11.742-8.397-18.603-21.879-18.603-36.352v-431.65c0-13.585 11.264-30.481 21.811-39.117 15.292-12.732 32.939-29.013 116.702-88.883 97.246-69.598 98.236-82.671 138.308-147.934 0 0 49.323-118.784 51.985-126.123 36.591-102.537 158.652-75.605 172.203 30.72 7.919 62.669-15.735 115.61-30.583 169.54-13.653 49.869-23.484 77.141-27.409 106.189 51.814-4.608 150.255-21.811 179.917-19.866 100.454 6.554 160.324 48.435 121.344 190.43zM93.082 327.27v0c40.209 0 72.806 32.597 72.806 72.875v440.661c0 40.243-32.597 72.875-72.806 72.875s-72.841-32.666-72.841-72.875v-440.661c0-40.277 32.631-72.875 72.841-72.875v0z" />
<glyph unicode="&#x74;" glyph-name="vip1" d="M955.799 566.804v137.222l-118.855 68.679-68.611 118.684h-137.325l-118.923 68.611-118.718-68.611h-137.256l-68.611-118.684-118.855-68.679v-137.188l-68.645-118.821 68.611-118.821v-137.119l118.889-68.611 68.611-118.821h137.325l118.718-68.645 118.923 68.679h137.325l68.611 118.821 118.855 68.611v137.119l68.474 118.821-68.543 118.752zM913.833 340.449v-124.191l-107.671-62.044-62.044-107.568h-124.362l-107.602-62.112-107.534 62.112h-124.259l-62.112 107.568-107.602 62.044v124.191l-62.112 107.568 62.112 107.602v124.191l107.602 62.181 62.112 107.431h124.293l107.5 62.147 107.602-62.147h124.327l62.044-107.431 107.671-62.181v-124.225l62.010-107.602-61.976-107.534zM520.123 312.403l-155.384 310.836h-124.327v-41.42h41.42l186.508-372.948h103.532l186.508 372.948h41.42v41.42h-124.327l-155.349-310.836z" />
<glyph unicode="&#x75;" glyph-name="sum" d="M512.051-64c-282.337 0-512.017 229.645-512.017 511.983s229.68 512.017 512.017 512.017c282.269 0 512.051-229.714 512.051-512.017 0-282.337-229.714-511.983-512.051-511.983zM512.051 891.514c-244.549 0-443.497-198.948-443.497-443.497 0-244.583 198.983-443.497 443.497-443.497s443.531 198.983 443.531 443.497c0 244.549-198.983 443.497-443.531 443.497zM794.594 622.744l-542.474-386.762c-3.083-3.083-7.195-4.557-11.237-4.557-4.077 0-8.188 1.473-11.306 4.557-6.235 6.064-6.235 15.794 0 21.858l542.474 386.796c6.235 6.030 16.342 6.030 22.543 0s6.201-15.862 0-21.892v0 0zM464.19 525.342h-255.203c-8.839 0-15.999 6.955-15.999 15.451 0 8.531 7.16 15.486 15.999 15.486h255.203c8.839 0 15.965-6.955 15.965-15.486s-7.126-15.451-15.965-15.451v0 0zM336.605 401.595c-8.839 0-15.999 6.955-15.999 15.451v247.563c0 8.497 7.16 15.451 15.999 15.451 8.805 0 15.931-6.955 15.931-15.451v-247.563c-0.034-8.497-7.16-15.451-15.931-15.451v0 0zM815.219 339.687h-255.272c-8.805 0-15.999 6.955-15.999 15.486s7.195 15.451 15.999 15.451h255.272c8.771 0 15.931-6.921 15.931-15.451s-7.126-15.486-15.931-15.486v0 0zM815.219 215.939h-255.272c-8.805 0-15.999 6.921-15.999 15.486s7.195 15.451 15.999 15.451h255.272c8.771 0 15.931-6.886 15.931-15.451s-7.126-15.486-15.931-15.486v0 0z" />
<glyph unicode="&#x76;" glyph-name="user" horiz-adv-x="758" d="M186.796 758.753c0-111.147 90.1-201.247 201.247-201.247 111.141 0 201.241 90.1 201.241 201.247 0 111.136-90.1 201.247-201.241 201.247-111.147-0.006-201.247-90.111-201.247-201.247zM763.79 114.378c0-209.38-169.409-177.525-379.112-175.503-209.369 2.011-379.107-33.877-379.107 175.503 0 209.375 169.732 379.107 379.107 379.107 209.386 0 379.112-169.732 379.112-379.107z" />
<glyph unicode="&#x77;" glyph-name="tick" horiz-adv-x="1037" d="M0 306.679c0 0 162.282-58.205 260.573-166.994 98.187-108.823 183.763-203.684 183.763-203.684s74.039 158.263 269.755 370.679c195.75 212.311 322.694 269.789 322.694 269.789s-15.487 88.313-17.877 162.941c-3.638 118.039 1.975 220.592 1.975 220.592s-155.215-29.103-354.395-325.327c-199.215-296.224-238.019-423.167-238.019-423.167l-142.846 290.958-285.622-195.785z" />
<glyph unicode="&#x78;" glyph-name="phone" horiz-adv-x="1105" d="M552.607 731.398c-6.429 0-12.673-0.591-19.029-0.961v-115.243c6.355 0.554 12.526 1.921 19.029 1.921 115.761 0 209.574-93.85 209.574-209.5 0-19.989-3.695-38.907-8.868-57.16h117.793c3.325 18.548 5.358 37.614 5.358 57.16-0.037 178.795-145.024 323.783-323.857 323.783zM552.607 960c-6.429 0-12.673-0.739-19.029-0.961v-114.32c6.355 0.296 12.6 0.961 19.029 0.961 241.978 0 438.102-196.124 438.102-438.065 0-19.472-1.663-38.427-4.101-57.16h115.465c1.958 18.77 2.956 37.799 2.956 57.16 0 305.050-247.299 552.385-552.422 552.385zM753.461 182.227c-63.441 24.201-123.557 55.423-193.132-9.607-43.008-40.053-74.119-35.693-102.237-20.765-28.044 14.927-201.149 191.617-224.723 249.442-23.647 57.751-10.9 65.584 0 83.135 10.789 17.551 86.202 58.453 40.792 187.072-45.299 128.582-80.881 225.462-265.625 0-19.176-23.389 0-124.702 0-124.702s130.245-425.761 572.153-602.746c68.614-27.49 223.577 15.999 286.132 124.702 30.668 53.206-13.782 75.45-113.359 113.47z" />
<glyph unicode="&#x79;" glyph-name="map" horiz-adv-x="1049" d="M526.962 139.139c-0.043 0-0.086 0-0.128 0-10.788 0-21.106 4.752-28.127 13.015-10.703 12.501-22.476 25.815-34.805 39.943-110.282 125.694-259.007 289.489-259.007 443.609 0 178.865 145.472 324.294 324.294 324.294 178.865 0 324.252-145.429 324.252-324.294 0-157.245-156.56-323.395-269.368-450.716-10.275-11.602-20.036-22.647-29.112-33.007-7.021-8.22-17.253-12.843-27.998-12.843zM529.231 885.509c-137.766 0-249.846-112.122-249.846-249.846 0-170.303 176.896-316.16 250.017-406.62 72.651 94.57 249.589 235.547 249.589 406.62 0.086 137.723-111.994 249.846-249.76 249.846zM529.231 512.666c-78.088 0-141.534 63.532-141.534 141.534s63.532 141.576 141.534 141.576c78.13 0 141.576-63.532 141.576-141.576s-63.446-141.534-141.576-141.534zM529.231 721.285c-36.946 0-67.042-30.053-67.042-67.085 0-36.989 30.096-67.042 67.042-67.042s66.999 30.053 66.999 67.042c0 37.032-30.053 67.085-66.999 67.085zM1011.67-64h-974.382c-12.843 0-24.788 6.593-31.595 17.467-6.807 10.788-7.535 24.445-1.884 36.175l143.803 297.495c6.25 12.843 19.265 21.020 33.521 21.020h83.525c20.507 0 37.246-16.739 37.246-37.246 0-20.635-16.739-37.331-37.246-37.331h-60.278l-107.627-223.046h857.893l-97.31 223.132h-72.436c-20.464 0-37.16 16.611-37.16 37.246 0 20.507 16.739 37.246 37.16 37.246h96.839c14.813 0 28.127-8.776 34.035-22.305l130.103-297.538c5.052-11.516 3.896-24.745-2.997-35.362-6.807-10.574-18.58-16.953-31.209-16.953z" />
<glyph unicode="&#x7a;" glyph-name="timer" d="M460.005 414.41c0.788-0.96 1.919-1.817 2.811-2.776 11.311-13.984 28.345-23.136 47.745-23.136 33.967 0 61.455 27.489 61.455 61.489 0 18.063-7.883 34.138-20.222 45.414-1.611 1.782-3.085 3.633-5.415 5.45l-248.597 189.198c-7.266 5.587-17.686 5.827-25.226 0-9.049-6.992-10.728-19.982-3.77-29.031l191.22-246.609zM543.602 728.849h-68.55v225.29l68.55-1.097zM512 960c-12.236 0-24.267-0.994-36.297-1.851l0.103-68.55c11.928 0.994 23.958 1.851 36.194 1.851 244.552 0 443.45-198.932 443.45-443.45 0-244.552-198.932-443.45-443.45-443.45s-443.45 198.966-443.45 443.45c0 146.903 76.091 280.849 163.080 342.716l-45.243 52.132c-113.759-93.982-186.387-236.086-186.387-394.848 0-282.323 229.677-512 512-512s512 229.677 512 512-229.711 512-512 512z" />
</font>
</defs>
</svg>
